<svg height="512pt" viewBox="0 -1 512.00053 512" width="512pt" xmlns="http://www.w3.org/2000/svg"><path d="m359.4375 130.582031-199.273438 199.089844-54.820312-18.359375c-5.394531-1.796875-11.382812-.300781-15.277344 3.894531l-85.765625 85.59375c-3.59375 3.894531-5.09375 8.988281-3.894531 14.078125 1.199219 5.09375 4.792969 9.285156 9.886719 10.785156l40.4375 13.476563 44.128906-44.257813c5.992187-5.691406 15.277344-5.691406 21.265625 0 5.691406 5.988282 5.691406 15.273438 0 21.265626l-44.128906 44.261718 13.476562 40.4375c1.5 5.089844 5.691406 8.683594 10.785156 9.882813 5.503907 1.375 10.167969-.375 14.078126-3.894531l85.46875-85.894532c4.191406-3.894531 5.6875-9.886718 3.890624-15.277344l-18.355468-54.8125 199.273437-199.089843h53.707031c5.632813 0 10.792969-3.15625 13.351563-8.1875l61.898437-121.800781c2.941407-5.777344 1.828126-12.796876-2.761718-17.375-4.59375-4.589844-11.601563-5.71875-17.375-2.761719l-121.804688 61.890625c-5.03125 2.558594-8.191406 7.722656-8.191406 13.351562zm0 0"/><path d="m50.726562 439.140625-16.773437 17.074219c-5.988281 5.691406-5.988281 15.277344 0 20.96875 5.390625 5.988281 15.578125 5.992187 20.96875 0l17.070313-16.773438-5.390626-15.875zm0 0"/><path d="m4.394531 4.398438c-4.59375 4.578124-5.707031 11.597656-2.765625 17.375l61.898438 121.800781c2.558594 5.03125 7.71875 8.1875 13.351562 8.1875h53.707032l82.613281 82.585937 21.1875-21.164062-82.625-82.601563v-53.703125c0-5.628906-3.15625-10.792968-8.191407-13.351562l-121.800781-61.890625c-5.765625-2.957031-12.769531-1.828125-17.375 2.761719zm0 0"/><path d="m511.597656 414.851562c1.199219-5.089843-.300781-10.183593-4.191406-14.078124l-86.269531-85.566407c-4.191407-4.195312-10.183594-5.691406-15.574219-3.894531l-54.683594 18.316406-52.945312-52.925781-21.191406 21.167969 53.09375 53.074218-18.328126 54.722657c-1.796874 5.390625-.296874 11.382812 3.597657 15.273437l86.566406 85.867188c3.371094 3.371094 8.121094 5.382812 14.078125 3.894531 5.089844-1.199219 8.984375-4.792969 10.78125-9.882813l13.480469-40.4375-43.132813-43.132812c-5.992187-5.992188-5.992187-15.277344 0-21.265625 5.691406-5.691406 15.273438-5.691406 21.265625 0l43.132813 43.128906 40.4375-13.476562c4.792968-1.5 8.6875-5.691407 9.882812-10.785157zm0 0"/><path d="m440.011719 460.378906 16.773437 16.773438c5.828125 5.832031 15.140625 6.128906 21.265625 0 5.691407-5.6875 5.691407-15.273438 0-20.964844l-16.773437-17.074219-15.875 5.394531zm0 0"/></svg>