<svg id="Слой_1" enable-background="new 0 0 5000 5000" height="512" viewBox="0 0 5000 5000" width="512" xmlns="http://www.w3.org/2000/svg"><g><g><path d="m1938.907 2197.229c129.556-122.045 294.01-190.831 469.834-197.867v-243.809c0-83.808-68.192-152-152-152h-881.6c-83.808 0-152 68.192-152 152v673.654c205.905 29.658 364.8 206.759 364.8 420.746 0 128.532-57.586 243.475-148 321.434 103.995 38.787 178.4 138.826 178.4 256.166v369.387c103.936 21.182 182.4 113.302 182.4 223.413 0 38.423-9.648 74.604-26.496 106.4h346.364c-29.19-43.507-46.268-95.787-46.268-152v-190.831c-18.094-10.539-30.4-29.925-30.4-52.369v-177.784c0-119.819-44.962-231.844-126.588-315.43-134.009-137.201-207.813-318.309-207.813-509.987.001-200.197 83.601-393.789 229.367-531.123z"/></g><path d="m1572.741 4126.753c58.662 0 106.4-47.738 106.4-106.4 0-58.663-47.738-106.4-106.4-106.4h-592.8c-33.577 0-60.8-27.223-60.8-60.8 0-33.576 27.223-60.8 60.8-60.8h516.8v-364.8c0-83.808-68.192-152-152-152h-486.4c-83.808 0-152 68.192-152 152v592.8c0 58.662 47.737 106.4 106.4 106.4z"/><path d="m3259.941 3731.553c-83.808 0-152 68.192-152 152v243.2h1079.2c58.663 0 106.4-47.738 106.4-106.4v-136.8c0-83.808-68.192-152-152-152z"/><circle cx="3715.941" cy="3336.353" r="304"/><g><path d="m4201.952 1418.923c-44.277-29.224-103.768-20.439-141.281 17.075l-453.753 453.753c-11.398 11.398-26.857 17.801-42.976 17.801h-936.032c-53.885 0-97.568 43.683-97.568 97.568 343.707 43.656 619.808 335.825 637.45 685.588 10.287 203.923-65.758 404.195-208.644 549.456-79.31 80.646-124.806 195.344-124.806 314.673v176.715c0 22.444-12.305 41.83-30.4 52.369v190.831c0 56.213-17.078 108.493-46.268 152h228.668v-243.2c0-151.105 122.495-273.6 273.6-273.6h130.833c-62.529-73.966-100.433-169.33-100.433-273.6 0-181.079 113.866-335.684 273.6-397.056v-666.944c0-16.119 6.403-31.578 17.802-42.977l638.411-638.411c48.738-48.738 42.671-131.862-18.203-172.041z"/></g><circle cx="1162.341" cy="2849.953" r="304"/><path d="m1831.141 2728.353c0 159.733 61.512 310.665 173.197 425.021 103.951 106.43 161.203 248.633 161.203 400.395v116.984h547.2v-115.915c0-153.188 56.718-295.227 159.719-399.935 120.828-122.862 182.593-285.534 173.88-458.078-15.363-304.49-265.659-557.219-569.837-575.358-169.694-10.124-331.031 48.212-454.204 164.276-123.263 116.136-191.158 273.332-191.158 442.61zm236.535-17.798c26.6-20.455 64.778-15.512 85.262 11.133l249.583 324.455 318.888-531.466c17.278-28.782 54.61-38.134 83.407-20.855 28.797 17.278 38.134 54.625 20.855 83.407l-364.8 608c-10.346 17.248-28.544 28.262-48.628 29.42-1.173.074-2.345.104-3.503.104-18.807 0-36.649-8.713-48.198-23.735l-304-395.2c-20.468-26.615-15.48-64.778 11.134-85.263z"/><circle cx="1800.741" cy="1177.953" r="304"/><path d="m2682.341 3974.753v-182.4h-486.4v182.4c0 83.808 68.192 152 152 152h182.4c83.808 0 152-68.192 152-152z"/><circle cx="3168.741" cy="1512.353" r="304"/></g></svg>