<svg enable-background="new 0 0 512 512" viewBox="0 0 512 512" xmlns="http://www.w3.org/2000/svg"><g id="_x32_9_Call"><g><path d="m421.727 499.047c-197.856 0-398.131-173.955-408.706-405.243-2.229-48.849 41.449-87.595 90.107-79.865l36.327 5.738c35.901 5.692 62.838 35.048 65.541 71.327.569 8.204 1.66 16.457 3.13 24.518 6.45 35.522-12.425 70.57-45.955 85.223l-14.749 6.449c32.201 69.62 87.736 125.201 157.355 157.402l6.45-14.748c14.702-33.528 49.749-52.403 85.27-45.954 8.062 1.47 16.314 2.561 24.471 3.131 36.327 2.702 65.683 29.64 71.374 65.54l5.738 36.328c7.494 47.331-28.975 90.154-76.353 90.154z"/><path d="m300.163 48.422h.009c40.67 0 78.959 15.885 107.801 44.725 28.846 28.849 44.734 67.131 44.734 107.808 0 3.274 2.654 5.928 5.928 5.928s5.928-2.654 5.928-5.928c-.002-43.845-17.122-85.105-48.205-116.191-31.085-31.081-72.346-48.198-116.186-48.198-.002 0-.007 0-.009 0-3.274 0-5.928 2.654-5.928 5.928s2.654 5.928 5.928 5.928z"/><path d="m300.163 111.056c49.576 0 89.908 40.33 89.908 89.899 0 3.274 2.654 5.928 5.928 5.928s5.928-2.654 5.928-5.928c0-56.108-45.651-101.755-101.764-101.755-3.274 0-5.928 2.654-5.928 5.928s2.654 5.928 5.928 5.928z"/><path d="m300.163 173.69c15.038 0 27.272 12.231 27.272 27.265 0 3.274 2.654 5.928 5.928 5.928s5.928-2.654 5.928-5.928c0-21.573-17.553-39.121-39.128-39.121-3.274 0-5.928 2.654-5.928 5.928s2.654 5.928 5.928 5.928z"/></g></g><g id="Layer_1"/></svg>