<svg id="Layer_1" enable-background="new 0 0 286.19 199.994" height="512" viewBox="0 0 286.19 199.994" width="512" xmlns="http://www.w3.org/2000/svg"><g><path d="m90.577 48.163c-2.213.183-4.14 1.252-5.464 2.828h12.242c-1.613-1.916-4.093-3.052-6.778-2.828z"/><path d="m195.613 48.163c-2.689-.223-5.168.913-6.78 2.828h12.244c-1.324-1.576-3.25-2.645-5.464-2.828z"/><path d="m178.547 185.072h-30.452v-33.6h22.651l-1.68-7.235-24.139-4.683c-.619-.12-1.231-.279-1.832-.475-.602.196-1.215.355-1.833.475l-24.139 4.683-1.68 7.235h22.651v33.6h-30.452l-1.42 6.117c-.322 1.387-.829 2.685-1.481 3.883h76.706c-.652-1.198-1.159-2.496-1.481-3.883z"/><path d="m105.769 196.619h5.684v2.905h-5.684z"/><path d="m174.738 196.619h5.684v2.905h-5.684z"/><path d="m171.567 50.991c-1.836-1.483-3.569-2.624-5.12-3.267-1.042-.432-2.125-.625-3.188-.609-.278-.03-.56-.049-.847-.049h-12.497c-2.172.604-4.457.934-6.819.934s-4.647-.33-6.819-.933h-12.499c-.289 0-.573.019-.853.049-1.06-.016-2.14.176-3.181.608-1.551.642-3.283 1.784-5.119 3.267z"/><circle cx="143.096" cy="22.5" r="22.5"/><path d="m239.896 91.207c0 2.2 1.8 4 4 4h.716c2.2 0 4-1.8 4-4v-21.559h6.821v-10.8h30.758v-5.558h-30.758v-10.8h-6.821v-21.557c0-2.2-1.8-4-4-4h-.716c-2.2 0-4 1.8-4 4v32.358h-193.601v-32.358c0-2.2-1.8-4-4-4h-.716c-2.199 0-4 1.8-4 4v21.558h-6.82v10.8h-30.759v5.558h30.759v10.8h6.82v21.558c0 2.2 1.801 4 4 4h.716c2.2 0 4-1.8 4-4v-32.358h2.3 34.84l2.483 29.969c.279 3.364 2.64 6.191 5.9 7.066.688.185 1.383.273 2.072.273 2.579 0 5.054-1.25 6.573-3.439 4.837-6.97 10.629-14.575 15.586-20.44v33.21 10.946l-13.876 2.692c-4.746.921-8.507 4.547-9.6 9.256l-13.138 56.59c-1.53 6.59 2.572 13.173 9.162 14.703.933.216 1.864.32 2.781.32 5.569 0 10.608-3.824 11.922-9.483l11.341-48.848 26.05-5.054c.841-.163 1.644-.41 2.404-.728.76.318 1.563.564 2.403.728l26.05 5.054 11.34 48.848c1.313 5.659 6.352 9.483 11.922 9.483.917 0 1.85-.104 2.781-.32 6.59-1.53 10.692-8.112 9.162-14.703l-13.137-56.59c-1.093-4.709-4.854-8.335-9.6-9.256l-13.877-2.692v-10.491-33.667c4.957 5.865 10.749 13.47 15.587 20.441 1.519 2.189 3.994 3.439 6.573 3.439.688 0 1.385-.089 2.072-.273 3.261-.875 5.622-3.702 5.9-7.066l2.482-29.968h34.841 2.299v32.358zm-139.781-24.812-.625-7.546h7.044c-2.159 2.379-4.328 4.95-6.419 7.546zm85.961-.001c-2.091-2.595-4.26-5.167-6.419-7.546h7.044z"/></g></svg>