<svg fill="none" height="24" viewBox="0 0 24 24" width="24" xmlns="http://www.w3.org/2000/svg"><path clip-rule="evenodd" d="m12 20c-.5155.8569-.5158.8567-.5161.8565l-.0007-.0004-.002-.0012-.0057-.0034-.0183-.0112c-.0152-.0094-.0365-.0226-.0634-.0396-.0537-.0339-.13-.0828-.2257-.1462-.1911-.1267-.4601-.3117-.7811-.5508-.64029-.477-1.49601-1.1754-2.355-2.0615-1.69182-1.7452-3.532-4.3601-3.532-7.5422 0-4.14214 3.35786-7.5 7.5-7.5 4.1421 0 7.5 3.35786 7.5 7.5 0 3.1821-1.8402 5.797-3.532 7.5422-.859.8861-1.7147 1.5845-2.355 2.0615-.321.2391-.59.4241-.7811.5508-.0957.0634-.172.1123-.2257.1462-.0269.017-.0482.0302-.0634.0396l-.0183.0112-.0057.0034-.002.0012-.0007.0004c-.0003.0002-.0006.0004-.5161-.8565zm0 0 .5155.8569c-.3172.1908-.7138.1908-1.031 0zm-4-10c0-2.20914 1.79086-4 4-4 2.2091 0 4 1.79086 4 4 0 2.2091-1.7909 4-4 4-2.20914 0-4-1.7909-4-4z" fill="#000" fill-rule="evenodd"/></svg>