<svg id="Layer_2" enable-background="new 0 0 32 32" height="512" viewBox="0 0 32 32" width="512" xmlns="http://www.w3.org/2000/svg"><g><path d="m9.28003 28.73999c0 1.79999 1.45996 3.26001 3.26001 3.26001 1.79999 0 3.25995-1.46002 3.25995-3.26001s-1.45996-3.26001-3.25995-3.26001c-1.80005 0-3.26001 1.46002-3.26001 3.26001zm4.39001 0c0 .62-.51001 1.13-1.13 1.13s-1.13-.51001-1.13-1.13.51001-1.13 1.13-1.13 1.13.51001 1.13 1.13z"/><path d="m21.63 28.73999c0 1.79999 1.46003 3.26001 3.26001 3.26001 1.78998 0 3.26001-1.46002 3.26001-3.26001s-1.47003-3.26001-3.26001-3.26001c-1.79998 0-3.26001 1.46002-3.26001 3.26001zm4.38001 0c0 .62-.5 1.13-1.12 1.13-.63 0-1.13-.51001-1.13-1.13s.5-1.13 1.13-1.13c.62 0 1.12.51001 1.12 1.13z"/><path d="m1.42004 2.13h3.32996l3.92999 19.20996c.35004 1.72004 1.87 2.97004 3.63001 2.97004h13.40002c1.75 0 3.27997-1.25 3.63-2.97003l2.22999-10.89997c.21997-1.09003-.06-2.22003-.76001-3.08002-.71002-.86999-1.76001-1.35998-2.88001-1.35998h-20.20996l-1.04999-5.15002c-.10003-.48999-.54004-.84998-1.05004-.84998h-4.19996c-.58001 0-1.06005.47998-1.06005 1.07001 0 .58996.48004 1.05999 1.06005 1.05999zm12.84998 15.89997v-5.76001c0-.58997.46997-1.06 1.06-1.06s1.07001.47003 1.07001 1.06v5.76001c0 .59003-.47998 1.07001-1.07001 1.07001s-1.06-.47998-1.06-1.07001zm8.89001 0c0 .59003-.48004 1.07001-1.07001 1.07001-.59003 0-1.07001-.47998-1.07001-1.07001v-5.76001c0-.58997.47998-1.06 1.07001-1.06.58997 0 1.07001.47003 1.07001 1.06z"/></g></svg>